<svg width="163" height="48" viewBox="0 0 163 48" fill="none" xmlns="http://www.w3.org/2000/svg">
<path fill-rule="evenodd" clip-rule="evenodd" d="M0 47.5798H162.839V0H0V47.5798ZM51.8196 13.3475C51.8196 10.678 54.018 9.10767 57.7867 9.10767C61.0844 9.10767 63.4398 10.0498 63.7538 13.1904H59.043C59.043 12.4053 58.5719 12.0912 57.9438 12.0912C57.0016 12.0912 56.6875 12.4053 56.6875 12.8764C56.6875 13.3475 57.0016 13.5045 57.4727 13.6615C57.7867 13.7662 58.2055 13.8709 58.6707 13.9872C59.6013 14.2198 60.7179 14.499 61.5554 14.9177C63.1257 15.5459 63.9109 16.8021 63.9109 18.3724C63.9109 21.513 61.3984 22.9262 57.6297 22.9262C54.4891 22.9262 51.5056 21.9841 51.5056 18.5294H56.5305C56.5305 18.8434 56.6875 19.1575 56.8445 19.4715L56.8446 19.4716C57.0016 19.7856 57.3157 19.9427 57.7867 19.9427C58.5719 19.9427 59.043 19.4716 59.043 18.8435C59.043 18.3724 58.5719 18.0583 58.1008 17.9013L54.4891 16.8021C52.6048 16.331 51.8196 15.0748 51.8196 13.3475ZM129.392 38.1581V9.10767H130.962V38.1581H129.392ZM144.153 10.992C144.153 10.0498 144.938 9.2647 145.88 9.2647C146.979 9.2647 147.764 10.0498 147.607 10.992C147.607 11.9342 146.822 12.7193 145.88 12.7193C144.938 12.7193 144.153 11.9342 144.153 10.992ZM18.3724 22.6122L15.5459 9.42172H20.0997L21.3559 17.5872L22.6122 9.42172H27.9512L29.2074 17.5872L30.3066 9.42172H35.0175L32.191 22.6122H26.5379L25.2817 14.1326L24.0255 22.6122H18.3724ZM38.0011 22.6122V9.42172H47.8939V12.8764H42.869V14.2896H47.4228V17.7443H42.869V19.1575H48.0509V22.6122H38.0011ZM66.8944 12.8764V9.42172H78.6716V12.8764H75.374V22.4551H70.192V12.8764H66.8944ZM81.9692 22.6122V9.42172H92.0191V12.8764H86.9942V14.2896H91.548V17.7443H86.9942V19.1575H92.1761V22.6122H81.9692ZM95.9448 22.6122V9.42172H103.796C106.466 9.42172 108.193 10.2069 108.193 12.7193C108.193 14.2896 107.408 15.3888 105.524 15.8599C106.78 16.017 107.408 16.6451 107.722 17.5872C107.849 18.0934 107.899 18.676 107.954 19.3248C108.037 20.2863 108.132 21.3933 108.507 22.6122H103.482C103.242 21.8924 103.094 20.7143 102.967 19.7081C102.928 19.3973 102.891 19.1029 102.854 18.8435C102.697 18.2154 102.383 17.9013 101.598 17.9013H100.97V22.6122H95.9448ZM112.276 22.6122V9.42172H118.557L121.384 17.2732V9.42172H125.623V22.6122H119.342L116.516 14.6037V22.6122H112.276ZM141.169 38.1581V9.42172H142.74V38.1581H141.169ZM147.293 10.992C147.293 10.0498 146.665 9.42172 145.88 9.42172C145.095 9.42172 144.467 10.2069 144.467 10.992C144.467 11.9342 145.095 12.5623 145.88 12.5623C146.665 12.5623 147.293 11.7772 147.293 10.992ZM145.252 11.9342V10.2069H145.566V10.835H145.88C145.907 10.835 145.943 10.8396 145.984 10.8448C146.184 10.8703 146.508 10.9115 146.508 10.5209C146.508 10.2069 146.351 10.2069 146.037 10.2069H146.194C146.665 10.2069 146.822 10.3639 146.822 10.678C146.822 10.992 146.508 11.149 146.194 11.149L146.822 12.0912H146.508L146.037 11.149H145.566V11.9342H145.252ZM101.598 12.4053H101.127V14.9177H101.598C102.54 14.9177 103.325 14.4467 103.325 13.5045C103.325 12.5623 102.54 12.4053 101.598 12.4053ZM94.8456 31.7199C94.8456 27.6371 97.044 24.8106 101.598 24.8106C106.152 24.8106 108.35 27.6371 108.35 31.7199C108.35 35.8026 106.152 38.6292 101.598 38.6292C97.044 38.6292 94.8456 35.8026 94.8456 31.7199ZM51.3485 33.9183V25.1246H56.5305V33.6042C56.5305 34.5464 57.0016 35.0175 57.6297 35.0175C58.2578 35.0175 58.7289 34.7034 58.7289 33.6042V25.1246H63.9109V33.9183C63.9109 37.0589 61.5554 38.6292 57.6297 38.6292C53.5469 38.6292 51.3485 37.0589 51.3485 33.9183ZM68.1507 38.3151V25.1246H74.4318L77.2583 33.1331V25.1246H81.4982V38.3151H75.217L72.3904 30.3066V38.3151H68.1507ZM85.7379 38.3151V25.1246H90.9199V38.3151H85.7379ZM112.276 38.3151V25.1246H118.557L121.384 33.1331V25.1246H125.623V38.3151H119.342L116.516 30.3066V38.3151H112.276ZM103.011 31.7199C103.011 28.7363 102.383 28.2652 101.598 28.2652C100.813 28.2652 100.185 28.7363 100.185 31.7199C100.185 34.7034 100.813 35.1745 101.598 35.1745C102.383 35.1745 103.011 34.7034 103.011 31.7199Z" fill="#8A8A8A"/>
</svg>
