<svg width="164" height="40" viewBox="0 0 164 40" fill="none" xmlns="http://www.w3.org/2000/svg">
<path d="M62.2217 17.1428C61.7984 20.3174 59.2588 20.3174 56.9307 20.3174H55.6609L56.7191 14.1799C56.7191 13.7566 57.1423 13.5449 57.5656 13.5449H58.2006C59.8937 13.5449 61.3752 13.545 62.2217 14.3915C62.2217 15.2381 62.2217 16.0846 62.2217 17.1428ZM61.1635 8.67725H52.063C51.4281 8.67725 51.0048 9.10052 50.7932 9.73544L47.1953 33.0158C47.1953 33.439 47.407 33.8623 48.0419 33.8623H52.2747C52.9096 33.8623 53.3329 33.4391 53.5445 32.8041L54.6027 26.455C54.6027 25.82 55.2376 25.3968 55.8725 25.3968H58.8355C64.7614 25.3968 68.1476 22.4338 69.2058 16.7195C69.6291 14.1799 69.2058 12.2751 68.1476 10.7936C66.4545 9.5238 64.1265 8.67725 61.1635 8.67725Z" fill="#8A8A8A"/>
<path d="M82.1159 25.6081C81.6926 28.1478 79.7879 29.8409 77.2482 29.8409C75.9784 29.8409 74.9202 29.4176 74.2853 28.571C73.6503 27.7245 73.4387 26.6663 73.6503 25.6081C74.0736 23.0684 75.9784 21.3753 78.5181 21.3753C79.7879 21.3753 80.8461 21.7986 81.481 22.6451C81.9043 23.2801 82.3275 24.3383 82.1159 25.6081ZM88.0418 17.1425H83.809C83.3858 17.1425 83.1741 17.3542 82.9624 17.7774L82.7508 19.0473L82.5392 18.624C81.6926 17.3542 79.5763 16.7192 77.4599 16.7192C72.5922 16.7192 68.571 20.3171 67.7244 25.3965C67.3012 27.9361 67.936 30.2642 69.4175 31.9573C70.6874 33.4387 72.5921 34.0737 74.9202 34.0737C78.7297 34.0737 80.846 31.534 80.846 31.534L80.6344 32.8038C80.6344 33.2271 80.8461 33.6504 81.481 33.6504H85.2905C85.9254 33.6504 86.3487 33.2271 86.5603 32.5922L88.8884 17.7774C88.8884 17.5658 88.6767 17.1425 88.0418 17.1425Z" fill="#8A8A8A"/>
<path d="M111.111 17.1428H106.666C106.243 17.1428 105.82 17.3545 105.608 17.7777L99.6823 26.6666L97.1426 18.201C96.9309 17.5661 96.5076 17.3545 95.8727 17.3545H91.6399C91.2166 17.3545 90.7934 17.7777 91.005 18.4127L95.8727 32.3808L91.4283 38.73C91.005 39.1533 91.4283 39.9999 92.0632 39.9999H96.5077C96.9309 39.9999 97.3542 39.7882 97.5659 39.365L111.957 18.4127C112.169 17.7777 111.746 17.1428 111.111 17.1428Z" fill="#8A8A8A"/>
<path d="M126.56 17.1428C126.137 20.3174 123.597 20.3174 121.269 20.3174H119.999L121.057 14.1799C121.057 13.7566 121.481 13.5449 121.904 13.5449H122.539C124.232 13.5449 125.714 13.545 126.56 14.3915C126.772 15.2381 126.772 16.0846 126.56 17.1428ZM125.502 8.67725H116.401C115.767 8.67725 115.343 9.10052 115.132 9.73544L111.534 33.0158C111.534 33.439 111.745 33.8623 112.38 33.8623H117.036C117.46 33.8623 117.883 33.6507 117.883 33.0158L118.941 26.455C118.941 25.82 119.576 25.3968 120.211 25.3968H123.174C129.1 25.3968 132.486 22.4338 133.544 16.7195C133.968 14.1799 133.544 12.2751 132.486 10.7936C131.005 9.5238 128.676 8.67725 125.502 8.67725Z" fill="#8A8A8A"/>
<path d="M146.666 25.6081C146.243 28.1478 144.338 29.8409 141.798 29.8409C140.529 29.8409 139.47 29.4176 138.836 28.571C138.201 27.7245 137.989 26.6663 138.201 25.6081C138.624 23.0684 140.529 21.3753 143.068 21.3753C144.338 21.3753 145.396 21.7986 146.031 22.6451C146.455 23.2801 146.878 24.3383 146.666 25.6081ZM152.592 17.1425H148.359C147.936 17.1425 147.724 17.3542 147.513 17.7774L147.301 19.0473L147.089 18.624C146.243 17.3542 144.127 16.7192 142.01 16.7192C137.142 16.7192 133.121 20.3171 132.275 25.3965C131.851 27.9361 132.486 30.2642 133.968 31.9573C135.238 33.4387 137.142 34.0737 139.47 34.0737C143.28 34.0737 145.396 31.534 145.396 31.534L145.185 32.8038C145.185 33.2271 145.396 33.6504 146.031 33.6504H149.841C150.476 33.6504 150.899 33.2271 151.111 32.5922L153.439 17.7774C153.439 17.5658 153.015 17.1425 152.592 17.1425Z" fill="#8A8A8A"/>
<path d="M157.671 9.31216L153.862 33.0158C153.862 33.439 154.073 33.8623 154.708 33.8623H158.518C159.153 33.8623 159.576 33.4391 159.788 32.8041L163.386 9.52381C163.386 9.10053 163.174 8.67725 162.539 8.67725H158.306C158.095 8.67725 157.883 9.10052 157.671 9.31216Z" fill="#8A8A8A"/>
<path opacity="0.5" d="M30.2221 10C30.2221 10.2116 30.2221 10.4233 30.0105 10.6349C28.3174 19.1005 22.8148 21.8518 15.619 21.8518H12.0211C11.1746 21.8518 10.328 22.4867 10.328 23.3333L8.42327 35.1851L8 38.5713C8 39.2062 8.42327 39.6295 8.84654 39.6295H15.4074C16.2539 39.6295 16.8888 38.9946 16.8888 38.3597V37.9364L18.1587 30.3174V29.8941C18.3703 29.0475 19.0052 28.6243 19.6402 28.6243H20.6984C27.0475 28.6243 31.9152 26.0846 33.1851 18.6772C33.82 15.5026 33.3967 12.963 31.9152 11.2698C31.492 10.8466 30.857 10.4233 30.2221 10Z" fill="#8A8A8A"/>
<path d="M28.7829 9.31216C28.5713 9.31216 28.3597 9.10053 27.9364 9.10053C27.7247 9.10053 27.3015 8.88888 27.0898 8.88888C26.0316 8.67724 24.9734 8.67725 23.9152 8.67725H14.1798C13.9682 8.67725 13.7565 8.67724 13.5449 8.88888C13.1216 9.10052 12.6984 9.5238 12.6984 9.94708L10.582 23.0687V23.492C10.7936 22.6454 11.4285 22.0105 12.2751 22.0105H15.873C23.0687 22.0105 28.5713 19.0476 30.2644 10.7936C30.2644 10.582 30.2644 10.3704 30.4761 10.1587C30.0528 9.94708 29.6295 9.73545 29.2062 9.52381C28.9946 9.31217 28.7829 9.31216 28.7829 9.31216Z" fill="#8A8A8A"/>
<path d="M12.6984 9.94704C12.6984 9.52376 13.1216 9.10048 13.5449 8.88885C13.7565 8.88885 13.9682 8.67721 14.1798 8.67721H23.9152C24.9734 8.67721 26 9 27.0898 8.88885C27.3014 8.88885 27.0898 8.88885 27.5 9C27.5 9 28.3597 9.31213 28.7829 9.31213C29 9.5 28.9946 9.31213 29.2062 9.52377C29.6295 9.73541 30.0528 9.94705 30.4761 10.1587C30.8993 6.9841 30.476 4.8677 28.7829 2.96295C26.8782 0.846552 23.4919 0 19.2592 0H6.77245C5.9259 0 5.07933 0.634912 5.07933 1.48147L0 34.0739C0 34.7088 0.423279 35.3438 1.0582 35.3438H8.67719L10.582 23.0687L12.6984 9.94704Z" fill="#8A8A8A"/>
</svg>
