<svg width="184" height="22" viewBox="0 0 184 22" fill="none" xmlns="http://www.w3.org/2000/svg">
<path d="M1.92419 0.641565C1.15452 1.0264 0.513134 1.66781 0.256575 2.3092C0.128295 2.69404 0 6.15759 0 12.4433V21.936H4.48978V15.9068H10.3907L11.93 18.8573L13.4694 21.8077H16.0349C17.446 21.8077 18.6005 21.8077 18.6005 21.6794C18.6005 21.5511 17.8309 20.0118 16.8046 18.2159L15.0087 14.8806L15.5218 14.624C18.0874 12.9564 19.2419 9.49286 18.6005 5.64447C18.2157 3.33544 17.0612 1.6678 15.2653 0.898125C14.239 0.513286 14.1108 0.38501 8.33817 0.38501C3.84839 0.38501 2.43731 0.385006 1.92419 0.641565ZM13.0845 5.00307C13.3411 5.13135 13.7259 5.51619 13.8542 5.90103C14.2391 6.79899 14.239 8.97974 13.9825 9.62113C13.2128 11.1605 12.1866 11.5453 7.82506 11.5453H4.61807V4.74651H8.59474C10.7755 4.74651 12.828 4.87479 13.0845 5.00307ZM25.1428 0.513287C23.2186 1.15469 21.8075 2.43748 21.2944 4.36167C20.7813 5.90103 20.2682 9.36458 20.2682 11.1605C20.2682 12.8281 20.7813 16.1634 21.1661 17.5745C21.9358 19.8835 23.0903 21.1663 25.2711 21.6794C26.2973 21.936 27.1953 21.936 30.5306 21.936C34.2507 21.936 34.6355 21.8077 35.6617 21.4229C38.3556 20.2683 39.5101 17.0614 39.5101 11.1605C39.5101 4.8748 38.2273 1.79608 35.4052 0.769847C34.3789 0.385009 33.9941 0.38501 29.8892 0.38501C27.7084 0.38501 25.5276 0.513287 25.1428 0.513287ZM34.1224 5.25963C35.4052 7.05554 35.4052 15.7786 34.1224 17.0613C33.7375 17.4462 26.2973 17.4462 26.0408 17.0613C25.1428 15.9068 24.7579 9.62114 25.5276 6.67071C25.7842 5.51619 25.9125 5.13135 26.2973 5.00307C26.5539 4.87479 28.3498 4.87479 30.4023 4.87479C33.481 4.87479 33.9941 4.87479 34.1224 5.25963ZM43.8716 0.769847C43.4868 1.02641 42.9737 1.53952 42.7171 1.92436C42.3323 2.56576 42.3322 2.9506 42.204 10.6474C42.204 16.0351 42.204 18.9855 42.3322 19.4987C42.7171 20.6532 43.4868 21.5511 44.6413 21.8077C45.7958 22.0642 54.3905 22.0642 55.9299 21.8077C58.8803 21.2946 60.4197 19.6269 60.6762 16.42C60.8045 14.624 60.548 13.3412 59.7783 12.0584L59.2652 11.1605L60.0349 9.74941C60.6762 8.46661 60.8045 8.33834 60.8045 6.41414C60.8045 4.87479 60.6762 4.23339 60.4197 3.46372C59.9066 2.3092 59.1369 1.53952 57.9824 0.898125L56.9561 0.38501H50.927C44.6413 0.38501 44.6413 0.385009 43.8716 0.769847ZM55.8016 5.00307C56.0582 5.25963 56.1865 6.54242 56.0582 7.18382C55.9299 7.56866 55.6733 7.9535 55.4168 8.33834C54.9037 8.85146 54.9037 8.85146 50.927 8.85146H46.9503V4.74651H51.3118C53.6208 4.87479 55.6733 5.00307 55.8016 5.00307ZM54.9037 13.5978C55.6733 13.8544 56.0582 14.7523 56.0582 15.7786C56.0582 16.42 55.9299 16.8048 55.6733 16.9331C55.4168 17.1896 54.2623 17.1896 51.0553 17.1896H46.6937V13.0847L50.5421 13.213C52.7229 13.3412 54.6471 13.4695 54.9037 13.5978ZM67.0902 0.769847C65.166 1.53952 64.2681 2.82232 63.4984 5.64447C63.1135 7.05554 63.1136 7.82523 63.1136 11.1605C63.1136 14.624 63.1135 15.0089 63.6267 16.8048C64.2681 18.9855 64.7812 19.8835 65.9357 20.7815C67.3468 21.8077 67.7316 21.8077 72.6062 21.8077C77.4809 21.8077 77.994 21.6794 79.2768 20.7815C80.4313 20.0118 80.9444 18.9855 81.5858 16.8048C82.0989 15.0089 82.0989 14.624 82.0989 11.1605C82.0989 7.9535 82.0989 7.18382 81.7141 5.64447C80.9444 2.69404 80.0464 1.41125 78.1222 0.769847C77.096 0.385009 76.7112 0.38501 72.6062 0.38501C68.5013 0.38501 67.9882 0.385009 67.0902 0.769847ZM76.3263 5.00307C76.8394 5.25963 77.096 5.77275 77.4808 7.9535C77.994 10.6474 77.4809 15.6503 76.7112 16.8048C76.4546 17.3179 76.4546 17.3179 72.6062 17.3179C68.1164 17.3179 68.373 17.4462 67.8599 14.8806C67.0902 11.2888 67.7316 5.38791 68.7578 5.00307C69.3992 4.74651 75.8132 4.74651 76.3263 5.00307Z" fill="#8A8A8A"/>
<path d="M85.8191 0.897958L85.1777 1.53936V20.653L85.6909 21.1661C86.204 21.6792 86.4605 21.6792 87.3585 21.6792C88.2565 21.6792 88.513 21.551 88.8979 21.2944C89.5393 20.5247 89.6675 19.7551 89.6675 16.4198V13.2128H92.4897L93.9008 14.4956C96.7229 16.9329 97.7492 18.2157 97.7492 19.6268C97.7492 20.3965 97.8774 20.653 98.3906 21.1661C99.0319 21.8075 99.1602 21.8075 100.058 21.8075C100.828 21.8075 101.084 21.6792 101.598 21.2944C102.239 20.7813 102.239 20.653 102.239 19.2419C102.239 18.0874 102.111 17.5743 101.598 16.5481C100.956 15.137 98.9037 12.828 97.7492 11.8017L96.9795 11.1603L98.2623 10.0058C99.8016 8.59473 101.213 6.79882 101.854 5.38774C102.239 4.61806 102.367 3.97667 102.367 2.95043C102.367 1.53936 102.367 1.53936 101.726 0.897958C101.213 0.38484 100.956 0.384843 99.9299 0.384843C98.7754 0.384843 98.6471 0.38484 98.2623 0.897958C98.0057 1.2828 97.8774 1.66764 97.8774 2.30904C97.8774 2.82215 97.7491 3.46355 97.6209 3.72011C97.236 4.48979 95.825 6.15742 94.0291 7.69677L92.618 8.85129H89.7958V5.6443C89.7958 3.97667 89.6675 2.18075 89.5393 1.79592C89.2827 0.769679 88.513 0.25656 87.3585 0.25656C86.4605 0.38484 86.3323 0.38484 85.8191 0.897958ZM110.321 0.641398C107.755 1.41107 106.344 3.33527 105.318 7.05538C104.805 8.72301 104.805 9.3644 104.676 14.239C104.548 20.0116 104.676 20.653 105.574 21.2944C106.216 21.8075 107.883 21.8075 108.396 21.2944C109.038 20.7813 109.294 20.1399 109.294 18.2157V16.2915H119.3V18.4723C119.3 20.5247 119.3 20.653 119.813 21.1661C120.326 21.6792 120.583 21.6792 121.481 21.6792C122.507 21.6792 122.635 21.6792 123.148 21.0378L123.662 20.3965V14.239C123.533 8.46645 123.533 7.95334 123.148 6.67054C122.251 3.59183 120.839 1.66764 119.044 0.897958C118.017 0.38484 117.761 0.384843 114.554 0.384843C112.116 0.384843 110.834 0.384839 110.321 0.641398ZM116.991 5.0029C118.017 5.38774 118.915 7.69678 119.172 10.6472L119.3 11.93H109.294L109.423 10.3906C109.679 7.69677 110.705 5.13119 111.732 4.87463C112.63 4.74635 116.35 4.87462 116.991 5.0029ZM129.819 0.641398C127.895 1.2828 126.869 2.18075 126.227 3.84839C125.842 4.74634 125.842 5.25947 125.842 6.79882C125.842 9.87753 126.74 11.6734 128.921 12.6997C129.819 13.0845 130.076 13.2128 133.924 13.2128C137.901 13.3411 138.029 13.3411 138.414 13.7259C138.927 14.239 139.055 15.9067 138.542 16.6763L138.157 17.1895H133.026C128.151 17.1895 127.767 17.1895 127.382 17.5743C126.355 18.4723 126.227 20.2682 127.253 21.1661L127.895 21.6792H133.539C136.618 21.6792 139.44 21.551 139.825 21.4227C140.851 21.1661 142.006 20.0116 142.775 18.6005C143.417 17.446 143.417 17.1895 143.417 15.137C143.417 13.2128 143.417 12.9562 142.904 11.93C142.262 10.5189 141.364 9.62096 140.466 9.10785C139.825 8.85129 139.183 8.72301 135.335 8.59474C130.204 8.46646 130.332 8.59473 130.332 6.54225C130.332 4.48978 130.076 4.61806 136.233 4.48978L141.492 4.36151L142.006 3.84839C142.519 3.33527 142.519 3.20699 142.647 1.66764L142.775 0H136.746C132.385 0.384839 130.332 0.513118 129.819 0.641398ZM148.933 0.641398C148.548 0.769677 147.906 1.02624 147.522 1.15452C145.084 2.43731 143.93 6.9271 145.469 10.0058C146.111 11.2886 146.752 12.0583 147.906 12.6997C148.804 13.2128 148.933 13.2128 152.781 13.3411C154.962 13.3411 156.886 13.4693 157.143 13.5976C157.784 13.8542 158.169 14.8804 157.912 16.0349C157.656 17.446 157.912 17.446 152.011 17.446H146.752L146.239 17.9591C145.726 18.4723 145.726 18.7288 145.726 19.6268C145.726 20.5247 145.854 20.7813 146.239 21.2944L146.752 21.8075H152.524C159.067 21.8075 159.195 21.8075 160.478 20.5247C161.632 19.3702 162.145 18.0874 162.274 15.7784C162.402 13.2128 161.889 11.6734 160.478 10.2624C159.836 9.62097 159.195 9.23612 158.682 9.10785C158.297 8.97957 156.373 8.85129 154.32 8.85129C152.268 8.85129 150.472 8.85129 150.087 8.72301C149.446 8.59473 149.061 7.95334 149.061 6.79882C149.061 5.6443 149.318 5.00291 150.087 4.87463C150.472 4.87463 152.781 4.74634 155.347 4.74634C161.376 4.74634 161.504 4.61807 161.504 1.79592V0.384843H155.475C151.498 0.384843 149.446 0.513118 148.933 0.641398ZM170.099 0.76968C169.586 1.02624 168.816 1.41108 168.431 1.66764C166.892 2.82215 165.481 5.90086 165.096 9.10785C164.839 11.2886 164.839 19.8833 165.096 20.653C165.352 21.4227 166.122 21.8075 167.277 21.8075C167.918 21.8075 168.303 21.6792 168.816 21.2944L169.457 20.7813V18.6005L169.586 16.4198H179.335L179.463 18.6005V20.7813L180.105 21.2944C180.618 21.8075 180.874 21.8075 181.644 21.8075C182.414 21.8075 182.67 21.6792 183.183 21.2944L183.825 20.7813V14.7521C183.825 9.23613 183.825 8.59473 183.44 7.18365C182.542 3.97666 181.259 2.05247 179.463 1.15452C178.309 0.6414 178.309 0.6414 174.717 0.51312C171.51 0.384841 170.997 0.384842 170.099 0.76968ZM177.796 5.51602C178.565 6.41398 179.207 8.33817 179.207 10.2624L179.335 11.8017H169.457V10.6472C169.457 8.2099 170.484 5.38774 171.638 4.87463C171.895 4.74635 173.178 4.74634 174.717 4.74634H177.282L177.796 5.51602Z" fill="#8A8A8A"/>
</svg>
